<svg width="1200" height="750" viewBox="0 0 1200 750" fill="none" xmlns="http://www.w3.org/2000/svg">
  <rect width="1200" height="750" fill="#0a0a0f"/>
  <rect x="40" y="40" width="1120" height="670" rx="12" fill="#12121a" stroke="#1e1e2a" stroke-width="1"/>
  <!-- Header bar -->
  <rect x="40" y="40" width="1120" height="44" rx="12" fill="#1a1a25"/>
  <rect x="40" y="72" width="1120" height="1" fill="#1e1e2a"/>
  <!-- Sidebar -->
  <rect x="40" y="84" width="200" height="626" fill="#16161f"/>
  <rect x="40" y="84" width="200" height="1" fill="#1e1e2a"/>
  <!-- Sidebar items -->
  <rect x="52" y="100" width="176" height="32" rx="6" fill="#1e1e2a"/>
  <rect x="64" y="110" width="12" height="12" rx="3" fill="#6366f1"/>
  <rect x="84" y="112" width="80" height="8" rx="2" fill="#3a3a4a"/>
  <rect x="52" y="140" width="176" height="32" rx="6" fill="transparent"/>
  <rect x="64" y="150" width="12" height="12" rx="3" fill="#3a3a4a"/>
  <rect x="84" y="152" width="96" height="8" rx="2" fill="#3a3a4a"/>
  <rect x="52" y="180" width="176" height="32" rx="6" fill="transparent"/>
  <rect x="64" y="190" width="12" height="12" rx="3" fill="#3a3a4a"/>
  <rect x="84" y="192" width="72" height="8" rx="2" fill="#3a3a4a"/>
  <!-- Main content area -->
  <rect x="260" y="100" width="880" height="580" rx="8" fill="#12121a"/>
  <!-- Form fields -->
  <rect x="284" y="120" width="400" height="36" rx="6" fill="#1a1a25" stroke="#1e1e2a"/>
  <rect x="296" y="132" width="60" height="8" rx="2" fill="#3a3a4a"/>
  <rect x="296" y="146" width="160" height="6" rx="2" fill="#2a2a3a"/>
  <rect x="284" y="172" width="400" height="36" rx="6" fill="#1a1a25" stroke="#1e1e2a"/>
  <rect x="296" y="184" width="80" height="8" rx="2" fill="#3a3a4a"/>
  <rect x="296" y="198" width="120" height="6" rx="2" fill="#2a2a3a"/>
  <rect x="284" y="224" width="400" height="80" rx="6" fill="#1a1a25" stroke="#1e1e2a"/>
  <rect x="296" y="236" width="100" height="8" rx="2" fill="#3a3a4a"/>
  <rect x="296" y="252" width="360" height="6" rx="2" fill="#2a2a3a"/>
  <rect x="296" y="268" width="320" height="6" rx="2" fill="#2a2a3a"/>
  <rect x="296" y="284" width="280" height="6" rx="2" fill="#2a2a3a"/>
  <!-- Status pill -->
  <rect x="700" y="124" width="60" height="20" rx="10" fill="#052e16"/>
  <rect x="712" y="132" width="8" height="8" rx="4" fill="#22c55e"/>
  <rect x="724" y="132" width="28" height="8" rx="2" fill="#22c55e"/>
  <!-- Right panel -->
  <rect x="700" y="172" width="420" height="200" rx="8" fill="#1a1a25" stroke="#1e1e2a"/>
  <rect x="716" y="188" width="80" height="8" rx="2" fill="#3a3a4a"/>
  <rect x="716" y="212" width="380" height="6" rx="2" fill="#2a2a3a"/>
  <rect x="716" y="228" width="340" height="6" rx="2" fill="#2a2a3a"/>
  <rect x="716" y="244" width="300" height="6" rx="2" fill="#2a2a3a"/>
  <rect x="716" y="268" width="120" height="28" rx="6" fill="#6366f1"/>
  <rect x="732" y="276" width="80" height="8" rx="2" fill="#fff"/>
</svg>
